<svg width="128" height="128" viewBox="0 0 128 128" xmlns="http://www.w3.org/2000/svg">
  <path d="M32 32h64v64H32z" fill="none" stroke="#CCCCCC" stroke-width="6" rx="4"/>
  <rect x="44" y="44" width="40" height="40" rx="2" fill="none" stroke="#CCCCCC" stroke-width="4"/>
  <path d="M40 12h8v20h-8zm12 0h8v20h-8zm12 0h8v20h-8zm12 0h8v20h-8zM40 96h8v20h-8zm12 0h8v20h-8zm12 0h8v20h-8zm12 0h8v20h-8zM12 40h20v8H12zm0 12h20v8H12zm0 12h20v8H12zm0 12h20v8H12zM96 40h20v8H96zm0 12h20v8H96zm0 12h20v8H96zm0 12h20v8H96z" fill="#CCCCCC"/>
</svg>
