<svg width="16" height="16" viewBox="0 0 16 16" xmlns="http://www.w3.org/2000/svg" fill="currentColor"><path d="M8 2 C 4.68629 2 2 4.68629 2 8 C 2 11.3137 4.68629 14 8 14 C 11.3137 14 14 11.3137 14 8 C 14 4.68629 11.3137 2 8 2 Z M 3 8 C 3 5.23858 5.23858 3 8 3 C 9.176 3 10.2555 3.40798 11.1191 4.10352 L 4.10352 11.1191 C 3.40798 10.2555 3 9.176 3 8 Z M 8 13 C 6.824 13 5.74454 12.592 4.88086 11.8965 L 11.8965 4.88086 C 12.592 5.74454 13 6.824 13 8 C 13 10.7614 10.7614 13 8 13 Z" fill="#CCCCCC"/></svg>